<?xml version="1.0" standalone="no"?>
<!DOCTYPE svg PUBLIC "-//W3C//DTD SVG 20010904//EN"
 "http://www.w3.org/TR/2001/REC-SVG-20010904/DTD/svg10.dtd">
<svg version="1.0" xmlns="http://www.w3.org/2000/svg"
 width="1400.000000pt" height="795.000000pt" viewBox="0 0 1400.000000 795.000000"
 preserveAspectRatio="xMidYMid meet">
<metadata>
Created by potrace 1.15, written by Peter Selinger 2001-2017
</metadata>
<g transform="translate(0.000000,795.000000) scale(0.100000,-0.100000)"
fill="#000000" stroke="none">
<path d="M0 6545 c0 -1086 3 -1405 12 -1405 9 0 9 -3 0 -12 -18 -18 -17 -2824
1 -2831 10 -4 10 -6 0 -6 -10 -1 -13 -228 -13 -1100 l0 -1098 172 -32 c95 -18
206 -39 247 -47 62 -12 415 -14 2366 -14 2279 0 2292 0 2310 20 10 11 23 20
29 20 6 0 22 12 35 26 40 42 220 173 246 180 14 3 25 10 25 15 0 9 32 41 71
73 13 11 49 40 79 66 30 26 74 59 97 73 23 14 44 31 48 37 3 6 52 45 108 87
56 43 111 85 122 95 11 9 59 47 106 85 47 37 103 82 124 98 21 17 42 31 46 33
5 2 23 17 40 33 46 43 217 169 229 169 5 0 25 14 43 31 55 53 138 123 176 149
21 14 57 42 82 62 40 34 142 114 403 316 52 41 102 81 112 90 35 31 198 158
249 193 28 19 55 39 60 45 6 6 35 30 65 55 30 24 57 47 58 52 2 4 8 7 14 7 5
0 15 6 22 13 8 7 69 56 136 108 140 107 329 254 347 269 39 32 86 58 98 54 18
-7 55 13 55 30 0 8 14 19 30 26 17 7 30 18 30 26 0 7 9 15 19 19 11 3 23 15
26 26 4 10 11 19 17 19 6 0 9 3 5 6 -3 4 30 36 75 71 l80 66 57 -6 c159 -16
395 -58 412 -73 17 -15 20 -15 44 4 14 11 27 24 28 27 2 7 -48 26 -123 45 -25
7 -53 20 -62 30 -10 10 -38 22 -62 25 -25 4 -51 13 -57 21 -6 8 -22 14 -35 14
-30 0 -30 7 -1 31 l22 18 -22 1 c-13 0 -23 5 -23 11 0 6 11 9 24 7 13 -1 30 3
39 11 9 7 43 15 76 18 37 4 58 10 54 16 -4 6 16 8 58 3 96 -10 129 -17 124
-26 -6 -10 22 -40 36 -40 5 0 4 9 -3 20 -16 25 -10 29 31 22 l34 -5 -6 -85
c-4 -64 -9 -87 -21 -94 -20 -11 -61 -44 -378 -298 -134 -108 -257 -207 -275
-220 -108 -85 -579 -466 -584 -473 -7 -10 -13 -146 -35 -867 -8 -278 -19 -588
-23 -690 l-8 -185 26 -22 c14 -13 22 -23 16 -23 -23 -1 33 -24 99 -41 68 -18
186 -19 2917 -19 l2847 0 36 44 36 44 0 1189 0 1188 -38 -41 c-20 -23 -123
-131 -228 -240 -104 -110 -253 -266 -330 -349 -254 -274 -270 -288 -359 -325
-148 -61 -326 -90 -561 -90 -301 0 -556 35 -748 104 -236 84 -363 205 -315
299 11 22 189 207 199 207 3 0 5 -29 5 -64 -1 -36 3 -62 7 -60 4 3 8 1 8 -3 0
-5 14 -31 32 -59 17 -27 31 -57 29 -68 -2 -13 6 -9 28 16 34 39 101 72 180 89
51 11 70 29 29 29 l-21 0 21 18 c14 13 18 22 11 33 -7 12 -9 12 -9 -1 0 -10
-12 -16 -35 -17 -44 -2 -131 -42 -167 -76 -68 -63 -11 68 83 193 l64 85 6 -49
c3 -28 11 -52 17 -54 7 -2 10 -7 8 -10 -2 -4 9 -7 25 -8 16 -1 29 3 29 9 0 6
-3 7 -7 4 -8 -9 -33 12 -33 29 0 7 23 42 50 79 28 36 45 64 38 63 -7 -2 -13 4
-13 12 -1 28 -25 60 -50 66 -28 7 -24 24 5 24 26 0 50 27 50 55 0 13 4 26 9
29 5 3 8 -27 6 -69 l-3 -74 59 -7 c32 -4 56 -10 53 -15 -8 -14 42 -33 63 -24
45 21 91 11 52 -11 -17 -9 -19 -13 -8 -14 9 0 22 -6 29 -14 6 -8 17 -13 25
-10 7 3 16 1 20 -5 3 -6 1 -11 -5 -11 -17 0 -100 -72 -100 -87 0 -7 -9 -17
-21 -23 -21 -12 -24 -57 -2 -53 6 1 14 -12 18 -30 7 -31 8 -30 17 23 8 53 19
70 47 70 9 0 11 -8 8 -22 -6 -28 6 -67 17 -50 3 6 13 9 21 6 10 -4 18 3 25 20
5 14 14 26 20 26 6 0 29 12 53 27 23 14 48 26 54 26 7 0 13 7 13 16 0 27 19
48 28 34 10 -16 -6 -173 -19 -189 -6 -7 -4 -16 6 -24 11 -9 12 -17 4 -31 -12
-22 -4 -39 17 -39 10 0 12 5 7 13 -6 10 -6 163 0 239 3 30 17 51 17 25 0 -21
7 -21 25 -3 17 17 8 56 -13 56 -19 0 -3 20 19 23 31 5 39 20 39 73 0 34 4 53
10 49 6 -3 8 -21 5 -38 -4 -28 -4 -30 7 -12 6 11 14 22 18 25 4 3 10 58 13
122 6 105 4 117 -11 121 -16 4 -16 5 1 6 19 1 24 21 5 21 -9 0 -8 4 2 10 12 8
13 11 1 19 -9 6 -10 10 -2 12 7 3 13 47 17 119 6 143 11 177 27 184 7 3 -1 4
-18 3 l-30 -2 3 -70 c5 -91 -8 -126 -45 -124 l-28 2 28 4 c25 4 27 8 27 54 0
55 -10 61 -35 23 -9 -14 -19 -23 -22 -20 -3 3 0 12 7 21 8 9 8 15 2 15 -6 0
-18 -10 -26 -22 -9 -12 -16 -18 -16 -13 1 19 40 56 51 49 7 -4 9 -3 6 3 -4 6
2 13 13 16 14 3 20 14 20 32 0 25 -2 26 -32 20 -42 -9 -48 -13 -48 -31 0 -8
-7 -14 -15 -14 -8 0 -15 4 -15 8 0 20 43 46 102 62 58 16 90 40 53 40 -14 0
-16 6 -11 34 5 24 2 37 -9 46 -8 7 -15 19 -15 28 0 25 -31 40 -72 34 -33 -4
-38 -2 -38 16 0 25 4 28 58 37 38 6 42 5 42 -14 0 -25 16 -36 24 -15 9 22 8
26 -6 18 -7 -4 -8 -3 -4 4 4 7 12 12 17 12 6 0 35 12 65 27 30 14 57 23 62 19
11 -12 6 -235 -12 -481 -9 -121 -18 -292 -21 -380 l-5 -160 15 85 c7 47 19
204 26 350 6 146 15 269 20 275 6 5 9 2 9 -8 0 -23 16 -22 37 2 9 11 20 18 24
16 4 -3 6 1 5 8 0 6 3 62 8 122 4 61 10 133 12 160 2 28 7 76 10 109 5 42 3
60 -6 66 -10 6 -11 20 -3 58 5 27 6 59 1 71 l-8 22 -21 -20 c-12 -11 -37 -25
-54 -31 -49 -16 -176 -35 -212 -32 -30 3 -31 5 -21 28 6 13 17 24 24 24 7 0
14 4 16 10 2 5 35 16 73 24 l70 14 -55 1 c-36 1 -50 4 -41 10 11 7 13 29 8
108 -3 54 -10 110 -16 126 -9 24 -8 27 12 29 12 1 -75 4 -193 8 -118 4 -222 3
-230 -1 -8 -5 -10 -9 -5 -9 6 0 4 -4 -3 -8 -9 -6 -14 -42 -16 -112 -3 -66 -8
-105 -16 -110 -16 -10 2 -21 50 -31 21 -5 8 -6 -35 -3 -124 10 -285 50 -293
73 -3 8 -1 11 4 8 5 -3 9 20 10 51 0 32 4 91 8 133 l9 75 -49 19 c-83 31 -158
72 -184 100 l-25 28 35 -18 35 -18 -20 24 c-11 13 -26 29 -32 37 -7 7 -13 22
-13 32 0 20 57 80 77 80 7 0 13 5 13 10 0 6 11 8 26 4 17 -5 29 -2 35 7 4 8
19 14 31 14 13 1 29 4 36 8 7 5 12 3 12 -3 0 -6 13 -4 33 7 75 39 464 50 678
19 237 -36 378 -81 453 -146 30 -27 36 -38 32 -62 -5 -34 -53 -81 -99 -98 -18
-7 -42 -17 -53 -22 -12 -6 -77 -19 -145 -29 -108 -16 -114 -18 -47 -14 118 7
226 32 300 69 61 31 66 32 56 12 -7 -11 -13 -23 -13 -26 -2 -9 -16 -172 -19
-225 -3 -44 -7 -53 -38 -73 l-35 -23 -7 -126 c-7 -144 -63 -815 -71 -853 -15
-75 -37 -340 -44 -516 -6 -168 -10 -204 -23 -218 -10 -9 -15 -23 -12 -31 4 -8
1 -15 -5 -15 -6 0 -8 -7 -5 -15 7 -18 -10 -20 -24 -2 -6 7 -39 26 -73 42 l-61
30 -18 -23 c-10 -12 -24 -22 -32 -22 -7 0 13 -11 45 -24 58 -24 132 -70 144
-89 3 -6 -14 3 -38 19 -95 64 -144 72 -69 11 29 -23 63 -51 75 -62 43 -39 65
-106 43 -133 -32 -38 -164 -78 -302 -91 l-81 -8 66 -2 c143 -3 363 51 417 102
32 30 34 35 29 85 -3 28 -4 52 -2 52 1 0 10 -16 19 -35 15 -31 15 -38 1 -72
l-15 -38 40 42 c57 60 54 109 -8 176 -14 15 -28 27 -31 27 -3 0 -14 -18 -25
-39 -10 -22 -32 -52 -47 -67 l-29 -28 0 37 c0 21 6 48 14 60 37 56 72 229 93
460 3 31 9 60 14 63 5 3 9 -2 9 -10 0 -18 52 -20 130 -7 l45 8 -55 3 -55 2 55
10 c30 6 57 14 60 18 6 9 60 20 129 26 30 3 57 6 60 6 24 2 21 -6 -9 -22 -41
-23 -24 -26 25 -6 21 9 37 11 40 5 4 -5 17 -9 31 -9 13 0 24 -5 24 -11 0 -7
10 -5 25 5 33 21 42 20 21 -3 -17 -18 -77 -40 -166 -59 l-45 -10 50 -1 c28 0
95 11 150 24 55 14 108 27 119 30 10 2 28 0 38 -6 16 -9 19 -8 13 2 -6 9 -3
10 11 5 10 -4 15 -4 11 0 -4 4 3 12 15 18 13 6 24 20 25 31 3 20 3 20 -6 0 -4
-11 -12 -20 -17 -20 -5 0 -15 -4 -23 -9 -8 -5 -27 -10 -42 -11 l-28 -2 20 25
c21 28 24 54 9 83 -6 11 -7 19 -1 19 20 0 30 -83 11 -95 -12 -7 -13 -25 -2
-25 4 0 24 16 45 36 54 53 52 90 -9 149 -25 25 -40 45 -34 45 7 0 21 -10 31
-22 11 -11 22 -18 26 -14 10 10 -49 55 -64 49 -9 -4 -11 0 -7 11 3 9 2 16 -2
16 -12 0 -8 83 12 262 l17 146 33 -5 c20 -3 40 -1 49 7 8 7 38 13 67 15 60 3
118 15 118 24 0 3 -60 5 -132 3 l-133 -3 3 55 4 56 36 2 37 1 -32 4 c-18 2
-33 9 -33 14 0 5 12 8 28 5 15 -2 39 -5 54 -5 15 -1 34 -8 42 -17 9 -9 21 -12
28 -7 7 4 25 8 40 9 44 3 58 12 58 37 0 24 -1 24 -47 15 -27 -5 -82 -9 -123
-10 l-75 -1 -6 49 c-3 27 -2 57 2 66 5 9 9 33 9 53 0 32 3 36 22 33 12 -2 24
-9 26 -17 3 -10 0 -12 -14 -7 -11 4 -7 -3 12 -22 24 -23 33 -27 51 -19 19 9
20 12 8 31 -10 16 -10 27 -2 46 l11 25 4 -27 c2 -16 10 -28 17 -28 21 0 35
-29 35 -70 0 -18 3 -18 27 -7 20 9 23 13 10 15 -9 2 -17 10 -17 18 0 8 -5 14
-11 14 -6 0 -8 7 -5 16 3 8 2 12 -3 9 -5 -3 -12 3 -15 12 -7 27 -5 121 3 100
6 -16 8 -16 24 3 15 18 15 20 1 20 -10 0 -14 6 -10 15 3 8 1 15 -4 15 -6 0
-10 -5 -10 -11 0 -5 -4 -8 -9 -4 -5 3 -13 0 -16 -6 -4 -5 -14 -8 -22 -5 -9 4
-11 2 -7 -6 5 -8 2 -9 -9 -5 -10 3 -17 2 -17 -3 0 -16 -47 -11 -65 6 -9 9 -13
19 -10 22 3 4 9 2 13 -4 12 -18 44 -25 59 -12 13 10 12 13 -4 20 -15 6 -13 7
7 6 14 -1 49 4 78 12 46 12 52 17 52 41 0 43 12 89 21 83 5 -3 9 9 9 25 0 17
-5 31 -11 31 -5 0 -7 -4 -4 -10 3 -6 2 -10 -4 -10 -5 0 -12 4 -15 9 -7 11 18
33 27 25 3 -4 6 57 6 135 l1 141 -38 1 c-36 1 -36 2 -7 8 25 5 31 12 38 49 5
24 6 47 2 50 -4 4 -25 -13 -47 -38 -22 -25 -36 -38 -30 -30 16 25 26 63 13 56
-7 -5 -9 -1 -5 8 3 9 14 16 24 16 36 0 50 12 50 42 0 29 -2 30 -30 24 -17 -3
-30 -1 -30 4 0 6 14 10 30 10 l31 0 -3 73 c-2 56 -6 72 -18 72 -8 0 -16 -10
-18 -22 -3 -22 -22 -33 -22 -13 0 5 -15 13 -32 18 -32 8 -33 9 -10 21 12 6 22
18 22 26 0 13 39 21 73 16 4 0 7 9 7 22 0 21 -4 22 -55 19 l-55 -4 0 31 c0 21
5 31 15 31 9 0 34 9 55 20 l40 20 0 90 c0 71 -3 91 -16 98 -13 7 -14 11 -2 23
7 8 14 24 16 37 3 21 1 22 -80 22 -155 1 -421 43 -533 84 -51 19 -36 19 40 1
33 -8 68 -15 78 -15 17 0 17 1 3 16 -21 20 -20 34 1 34 15 0 14 2 -3 15 -18
14 -18 16 -1 29 11 9 14 15 6 18 -7 2 -4 16 10 41 19 34 19 37 3 46 -15 9 -14
11 8 12 20 1 21 2 6 6 -14 4 -15 7 -6 13 7 4 -26 20 -86 40 -103 33 -214 86
-214 102 0 4 17 1 38 -8 126 -55 452 -116 452 -85 0 7 -8 14 -17 17 -10 3 -25
9 -33 13 -8 5 -30 7 -49 6 -31 -2 -32 -1 -16 12 22 15 16 17 -19 3 -19 -7 -25
-6 -23 3 1 8 -11 12 -37 11 -21 -1 -33 2 -26 6 8 5 -3 10 -28 15 -38 6 -40 8
-32 34 4 16 4 35 -1 42 -12 20 -11 31 2 23 6 -3 15 -1 19 6 5 8 32 13 70 14
41 1 64 7 71 16 5 9 9 10 9 3 0 -6 -5 -15 -10 -18 -15 -9 -12 -25 3 -19 8 3
19 -2 26 -10 7 -8 19 -12 27 -9 9 3 14 -1 14 -12 0 -9 4 -14 9 -11 5 3 7 14 4
24 -4 16 2 19 44 20 26 1 99 4 161 8 l112 6 0 179 0 178 -47 21 c-54 24 -113
61 -113 72 0 4 21 -3 48 -16 26 -13 63 -27 82 -31 31 -5 27 -2 -28 29 -34 20
-67 36 -72 36 -6 0 -11 5 -11 10 -1 6 -2 16 -3 23 -1 6 -7 11 -14 10 -26 -6 3
29 42 49 22 11 42 20 43 20 2 -1 8 0 15 3 7 2 22 5 33 7 20 3 20 12 23 1001
l2 997 -2601 0 -2602 0 7 -47 c11 -78 45 -459 52 -583 9 -163 10 -176 18 -188
3 -6 2 -13 -4 -17 -11 -7 -25 19 -17 32 3 5 1 30 -4 58 -5 27 -10 77 -11 112
-1 36 -5 60 -10 55 -11 -11 18 -305 39 -395 9 -40 19 -63 24 -56 4 7 7 3 7
-12 -1 -13 4 -55 10 -94 6 -38 18 -155 27 -260 9 -104 20 -223 25 -263 6 -40
10 -105 10 -145 1 -73 22 -279 35 -330 6 -23 5 -26 -11 -21 -14 4 -15 3 -6 -4
20 -14 31 -75 37 -202 3 -63 10 -155 15 -205 17 -164 21 -263 11 -269 -13 -9
-23 45 -24 130 0 40 -4 71 -9 68 -4 -3 -8 7 -8 23 0 22 2 25 10 13 7 -11 10
-4 10 27 0 44 -19 72 -21 31 -1 -13 -5 -3 -9 22 -4 25 -15 87 -25 139 -9 51
-15 106 -13 122 3 16 1 29 -3 29 -4 0 -9 18 -11 40 -2 29 0 39 9 36 7 -3 10 1
6 10 -3 7 -9 14 -13 14 -10 0 -17 46 -35 235 -15 159 -65 644 -115 1110 -16
154 -39 375 -50 490 -11 116 -23 229 -26 253 l-6 42 -4359 0 -4359 0 0 -1405z
m12524 -364 c37 -11 96 -23 131 -27 36 -4 65 -11 65 -15 0 -5 9 -9 20 -9 11 0
20 -4 20 -10 0 -5 9 -10 20 -10 13 0 18 -5 14 -15 -8 -19 19 -29 43 -17 19 10
43 6 43 -8 0 -7 -48 -22 -80 -25 -8 -1 -26 -8 -40 -15 -22 -13 -87 -19 -207
-21 -18 0 -33 -4 -33 -10 0 -5 -4 -9 -10 -9 -5 0 -18 -8 -28 -18 -16 -16 -16
-20 -4 -32 20 -19 268 -6 392 20 113 23 115 24 102 7 -6 -7 -12 -52 -14 -100
-2 -48 -5 -87 -8 -87 -11 0 -6 -40 5 -40 23 -1 -39 -40 -73 -46 -20 -3 -68
-15 -107 -25 -38 -11 -83 -19 -100 -20 -16 0 -39 -5 -50 -10 -14 -6 0 -7 43
-5 48 3 62 1 62 -10 0 -8 6 -11 18 -7 13 5 14 3 5 -7 -23 -25 -145 -50 -243
-49 -58 1 -85 4 -70 8 14 4 24 13 22 20 -1 7 3 11 10 10 14 -3 88 27 88 35 0
2 -62 5 -137 5 -148 1 -263 12 -303 30 -20 9 -14 10 35 5 146 -14 320 -21 339
-14 18 7 15 9 -14 10 -29 1 -32 3 -15 10 18 8 18 9 2 9 -10 1 -16 4 -14 9 3 4
1 27 -2 52 -5 29 -2 57 7 79 7 18 11 35 9 37 -2 2 -54 6 -115 8 -108 3 -122 0
-161 -30 -2 -2 2 -11 10 -20 11 -14 11 -18 -4 -29 -9 -6 -14 -15 -10 -18 11
-11 -18 -64 -42 -77 -15 -8 -39 -10 -69 -6 -38 6 -47 12 -52 32 -6 25 -1 105
10 157 4 18 2 27 -6 27 -10 0 -10 2 1 9 9 6 -9 17 -60 36 -101 38 -150 60
-174 78 -14 11 1 8 46 -8 67 -24 228 -59 236 -51 3 2 -6 7 -19 11 -36 10 -123
49 -126 58 -2 4 -12 7 -23 7 -11 0 -22 7 -25 15 -4 8 -12 15 -20 15 -27 0 -14
18 18 25 18 4 44 17 59 28 20 14 36 18 57 14 20 -4 34 -1 42 8 8 10 25 12 59
8 33 -4 57 -1 79 11 17 9 39 13 48 9 10 -4 15 -2 11 3 -3 6 39 11 108 13 91 2
125 -1 179 -18z m-10094 -81 c0 -3 -31 -97 -70 -209 -38 -112 -70 -209 -70
-217 0 -8 6 -14 14 -14 8 0 18 -4 21 -10 3 -5 0 -7 -8 -4 -11 4 -13 -1 -10
-19 3 -14 0 -27 -5 -31 -12 -7 -45 41 -37 53 6 11 -19 21 -55 21 -59 0 -58 17
4 198 32 92 63 184 68 204 l10 37 69 -2 c38 -1 69 -4 69 -7z m3472 -170 c90
-74 100 -188 29 -334 -40 -84 -164 -254 -245 -339 -58 -60 -60 -72 -3 -18 23
23 50 43 60 47 9 3 17 12 17 19 0 8 5 17 12 21 7 5 8 3 3 -6 -6 -10 -4 -12 9
-7 26 10 109 -85 90 -102 -32 -29 -328 -263 -366 -289 -27 -18 -48 -35 -48
-38 0 -8 85 49 170 115 125 98 243 181 257 181 18 0 83 -60 83 -77 0 -8 4 -11
10 -8 5 3 7 0 5 -8 -7 -18 29 -99 40 -89 5 4 5 2 2 -5 -10 -16 3 -44 16 -36 6
3 7 1 3 -6 -7 -11 36 -124 125 -327 37 -84 49 -124 49 -160 0 -48 -1 -50 -86
-131 -94 -91 -151 -136 -297 -237 -173 -119 -300 -196 -323 -196 -57 0 -97 79
-303 600 -31 81 -45 177 -24 173 7 -2 10 3 7 11 -4 10 9 24 35 40 48 30 56 46
10 19 -31 -18 -74 -63 -94 -98 -10 -17 -12 -17 -48 0 -20 9 -34 21 -31 26 5 8
-9 13 -28 10 -11 -1 -3 26 14 43 10 9 15 22 12 29 -2 7 10 21 26 31 17 10 29
20 27 23 -5 5 -132 -70 -161 -96 -17 -15 -18 -15 -15 1 2 9 88 73 191 141 273
182 374 262 546 431 109 107 208 242 237 323 9 26 22 58 28 70 9 20 11 74 5
143 -1 14 -8 31 -15 38 -7 7 -13 19 -13 26 0 14 -73 76 -89 76 -5 0 -12 4 -16
10 -11 18 51 -10 87 -40z m6010 -225 c140 -24 267 -63 253 -77 -11 -11 65 -58
94 -58 17 0 31 -5 31 -11 0 -6 7 -9 15 -5 11 4 15 -2 15 -21 0 -14 -3 -24 -6
-20 -3 3 -16 -5 -28 -17 -11 -13 -34 -26 -50 -30 -15 -4 -26 -9 -23 -12 3 -3
22 -1 44 5 l38 10 -27 -24 c-18 -15 -23 -25 -15 -28 7 -3 4 -6 -5 -6 -10 -1
-18 -4 -18 -8 0 -5 -15 -9 -33 -10 l-32 -1 35 13 c55 21 27 18 -98 -10 -13 -3
-20 -10 -16 -16 3 -6 15 -9 25 -6 12 3 19 0 19 -9 0 -8 -4 -14 -8 -14 -5 0 -9
-6 -10 -12 0 -7 -8 -38 -16 -68 -19 -67 -21 -120 -3 -120 35 -1 -30 -20 -123
-35 -199 -33 -554 -9 -730 50 l-45 15 40 -6 c22 -3 56 -7 75 -10 32 -4 33 -3
10 6 -20 9 -22 13 -10 20 13 9 13 10 0 10 -13 0 -13 1 0 10 13 8 12 10 -3 10
-10 0 -16 4 -13 9 3 5 9 45 12 90 6 80 6 81 -17 82 -20 1 -21 2 -5 6 13 4 -3
13 -49 29 -102 36 -157 65 -163 86 -2 10 -13 18 -26 18 -15 0 -17 3 -8 9 11 7
11 9 -2 14 -9 4 -16 16 -16 27 0 26 37 63 56 56 8 -3 14 -2 14 3 0 12 216 53
344 67 22 2 42 7 45 10 11 11 343 -5 433 -21z m-9692 -217 c0 -11 -24 -28 -67
-49 -154 -73 -215 -99 -232 -99 -19 0 -35 25 -26 40 6 9 179 94 181 88 1 -1
11 5 21 15 11 9 23 14 26 10 4 -3 7 -1 7 6 0 8 7 11 15 7 8 -3 20 1 27 8 16
17 48 -1 48 -26z m-170 -5 c0 -12 -50 -33 -76 -33 -32 0 -54 -10 -54 -25 0 -6
-18 -19 -40 -28 -35 -13 -40 -20 -40 -46 0 -17 -4 -31 -10 -31 -5 0 -7 6 -4
14 3 8 1 17 -5 21 -6 3 -11 1 -11 -4 0 -6 -6 -11 -13 -11 -9 0 -13 -11 -11
-32 3 -29 3 -30 -4 -8 -9 26 -40 30 -54 7 -10 -16 0 -23 14 -9 15 15 28 15 28
2 0 -6 -11 -15 -24 -20 -13 -5 -27 -14 -31 -20 -3 -5 -11 -8 -16 -5 -5 4 -19
-1 -31 -9 -12 -9 -18 -16 -13 -16 5 0 3 -6 -3 -12 -10 -10 -15 -10 -22 2 -8
12 -10 12 -10 1 0 -7 -11 -22 -25 -33 -14 -11 -25 -29 -25 -41 0 -16 -3 -18
-12 -9 -14 14 -48 16 -48 3 0 -5 8 -12 18 -14 11 -3 7 -5 -10 -6 -14 0 -33 -4
-42 -7 -33 -13 -14 13 37 51 28 22 54 42 57 45 26 28 92 70 101 64 7 -4 9 -3
5 4 -6 10 77 82 95 82 4 0 29 22 56 49 26 28 64 57 83 65 36 16 140 22 140 9z
m6553 -210 c11 -7 9 -25 -18 -114 -80 -265 -103 -354 -93 -360 6 -4 -15 -6
-45 -5 -43 1 -57 5 -60 18 -3 9 -15 18 -28 20 -13 2 -23 8 -23 13 2 15 114
393 125 421 9 25 11 26 72 19 34 -4 65 -9 70 -12z m-6693 -142 c0 -10 6 -26
14 -36 13 -18 11 -22 -27 -48 -23 -15 -144 -79 -268 -142 l-226 -113 -61 40
c-34 22 -62 44 -62 48 0 11 184 112 335 185 66 32 122 62 123 66 2 5 8 7 13 3
5 -3 12 2 15 10 3 9 10 14 14 11 4 -3 28 4 52 14 43 19 43 19 61 -1 9 -11 17
-28 17 -37z m9208 10 c131 -12 269 -51 311 -87 16 -13 35 -24 42 -24 24 0 49
-33 49 -64 0 -27 -8 -37 -53 -67 -69 -47 -106 -58 -240 -74 -62 -7 -95 -13
-75 -14 73 -2 244 22 327 45 89 26 113 26 62 -1 -17 -8 -31 -18 -31 -21 0 -3
6 -2 13 1 6 4 0 -4 -15 -17 l-27 -23 22 -19 c18 -15 18 -17 4 -12 -10 3 -31 7
-45 7 -17 1 -21 3 -9 6 9 2 14 9 11 14 -3 6 2 17 12 25 18 14 18 15 1 10 -10
-3 -47 -11 -83 -18 -40 -7 -60 -15 -52 -20 7 -4 9 -8 3 -8 -5 0 -3 -5 5 -10
13 -8 13 -10 -1 -10 -11 0 -15 -7 -12 -23 2 -12 0 -53 -5 -89 -6 -47 -5 -69 2
-72 6 -2 3 -5 -6 -5 -23 -1 -23 -17 -1 -30 48 -27 -217 -56 -447 -48 -96 3
-167 3 -158 0 9 -2 18 -14 20 -26 2 -12 14 -27 28 -34 14 -7 20 -13 13 -13 -6
0 -47 18 -90 40 l-78 39 45 1 c40 2 34 4 -45 20 -97 20 -260 69 -253 76 3 2
27 -3 54 -11 27 -8 60 -15 74 -15 23 0 23 2 -9 17 -30 15 -31 18 -17 29 13 9
14 13 4 16 -14 5 -18 80 -8 153 4 31 9 39 23 37 37 -6 14 7 -45 27 -86 29
-160 71 -174 99 -6 13 -17 29 -23 35 -19 19 -12 47 17 77 33 32 159 76 262 90
83 11 451 6 598 -9z m-7598 -261 c52 -6 168 -24 258 -41 141 -27 162 -34 162
-50 0 -11 -7 -19 -15 -19 -8 0 -15 7 -15 15 0 9 -9 15 -25 15 -14 0 -25 -4
-25 -10 0 -5 -15 -7 -32 -5 -18 2 -6 -2 27 -10 316 -78 580 -188 796 -330 100
-66 246 -197 322 -289 23 -28 -8 -1 -70 60 -166 166 -318 269 -540 368 -486
217 -1032 276 -1669 181 -250 -37 -448 -86 -722 -177 l-153 -51 -31 23 -32 23
31 -54 c23 -41 37 -55 56 -57 l27 -3 -27 -23 c-24 -21 -26 -26 -15 -50 17 -38
77 -36 168 8 81 38 236 100 277 110 l28 7 -20 -23 c-35 -37 -23 -38 31 -2 52
34 75 43 63 25 -3 -6 4 -9 15 -8 22 1 28 16 8 18 -7 0 2 5 21 10 18 6 36 8 39
5 3 -3 -2 -6 -11 -6 -10 0 -17 -4 -17 -10 0 -5 17 -7 38 -4 47 7 49 7 97 -5
46 -11 53 -8 34 15 -13 16 -11 17 14 12 20 -4 27 -1 28 11 0 9 3 11 5 4 3 -7
0 -21 -5 -32 -7 -13 -8 -22 -1 -26 5 -3 10 -1 10 5 0 11 24 40 33 40 13 0 0
-50 -13 -51 -9 0 -5 -4 8 -9 12 -5 22 -14 22 -20 0 -6 -5 -8 -11 -5 -13 9 -99
-16 -93 -27 3 -4 -8 -13 -23 -19 -15 -7 -42 -18 -60 -25 -17 -8 -35 -14 -40
-14 -10 0 -151 -59 -141 -60 4 0 55 16 113 35 250 83 612 163 805 178 l45 4
-50 2 -50 3 38 8 c21 4 57 4 79 0 33 -6 45 -4 61 11 22 20 47 25 47 10 0 -5
-6 -12 -12 -14 -7 -3 13 -5 45 -5 31 0 64 -5 72 -12 12 -10 18 -10 30 0 14 11
19 7 16 -12 0 -5 11 -8 25 -8 41 0 219 -38 302 -66 194 -62 427 -208 590 -367
75 -73 289 -293 401 -412 l56 -59 -50 44 c-27 25 -59 54 -70 65 -26 26 -55 49
-55 43 0 -3 23 -29 51 -58 39 -41 48 -55 37 -62 -9 -7 -6 -8 10 -5 19 5 22 2
17 -16 -4 -14 -3 -18 2 -9 7 9 15 6 31 -13 12 -14 17 -25 12 -25 -6 0 -10 -4
-10 -10 0 -5 6 -10 14 -10 8 0 18 -9 21 -20 4 -11 11 -18 16 -15 5 4 9 -2 9
-12 0 -14 2 -15 9 -4 7 11 10 10 14 -5 3 -12 5 -6 6 14 0 17 -3 32 -9 32 -5 0
-10 5 -10 10 0 24 20 7 32 -27 21 -60 18 -416 -5 -518 -51 -235 -132 -429
-271 -651 l-50 -80 -190 -126 c-208 -137 -382 -250 -406 -262 -20 -11 36 37
77 66 18 13 33 27 33 31 0 4 27 40 61 80 33 40 72 85 85 101 13 15 24 32 24
37 0 5 3 9 8 9 15 0 112 210 112 244 0 13 7 29 15 36 9 7 14 19 11 26 -3 7 2
18 10 25 9 7 14 23 11 35 -2 13 0 29 4 36 4 7 4 15 -1 18 -4 3 9 46 31 95 21
50 39 104 39 122 0 18 8 40 19 50 21 21 44 107 36 134 -3 10 0 33 9 51 20 45
30 124 16 133 -13 8 -13 58 0 71 7 7 7 39 0 102 -17 148 -77 307 -147 385 -18
20 -33 43 -33 50 0 23 -181 192 -258 242 -219 141 -475 207 -805 206 -172 0
-192 -1 -362 -27 -515 -80 -1082 -356 -1470 -716 -392 -365 -604 -746 -640
-1150 -7 -71 -6 -78 10 -78 10 0 16 -3 13 -6 -7 -7 -139 17 -294 52 l-111 25
4 47 c28 304 193 664 449 981 23 28 24 31 6 20 -12 -8 -22 -16 -22 -19 0 -3
-12 -19 -28 -36 l-27 -32 -30 19 c-25 16 -27 19 -9 19 11 0 24 -4 30 -10 6 -6
10 -3 10 10 0 11 -6 20 -12 20 -9 0 -10 8 -4 31 10 35 17 45 26 37 3 -4 1 -16
-6 -27 -6 -12 -7 -21 -2 -21 15 0 22 43 10 58 -9 10 -9 15 0 21 7 4 10 15 6
24 -3 9 -2 17 4 17 6 0 12 -6 15 -12 2 -7 8 -10 12 -6 4 4 -3 16 -16 27 -22
17 -22 19 -4 19 44 -1 47 1 41 28 -6 22 -4 25 14 19 14 -5 20 -2 20 10 0 12
-6 15 -22 10 -18 -5 -16 -2 7 13 27 17 31 17 38 3 5 -11 6 -8 4 10 -3 19 1 25
16 26 11 1 26 11 34 23 8 11 19 17 25 14 7 -4 8 -2 4 5 -4 6 0 18 8 27 9 9 14
19 11 24 -3 5 0 10 7 12 9 3 9 6 1 11 -7 5 -20 -10 -34 -37 -12 -25 -28 -47
-36 -50 -8 -4 -5 7 9 27 13 17 28 41 34 51 5 11 21 26 35 34 23 13 23 13 5 -2
-11 -9 -14 -16 -7 -16 6 0 22 9 34 21 17 15 18 19 5 14 -29 -11 -20 8 17 38
19 15 40 25 45 22 6 -3 7 1 4 9 -6 16 10 23 19 9 2 -5 3 -3 1 4 -1 6 5 18 15
27 20 18 35 21 26 5 -4 -6 2 -5 14 3 12 7 16 15 11 16 -6 2 6 19 27 38 40 35
65 45 42 17 -11 -13 -11 -15 -1 -9 7 4 17 19 22 32 5 13 16 24 23 24 7 0 24
11 37 25 23 24 47 35 35 15 -3 -6 1 -7 10 -4 9 4 14 13 11 20 -6 15 14 19 30
7 5 -5 3 -1 -3 7 -11 12 -17 12 -46 -5 -34 -20 -40 -24 -162 -117 -279 -214
-528 -478 -719 -762 -51 -77 -63 -80 -16 -5 17 29 27 56 24 66 -5 14 -4 15 4
4 13 -18 26 4 14 25 -8 14 -11 12 -23 -15 -16 -35 -30 -42 -22 -10 5 18 3 20
-16 14 -16 -5 -21 -2 -21 10 0 12 -6 16 -20 12 -11 -3 -17 -1 -14 4 3 6 -2 21
-11 35 -9 13 -13 30 -9 36 4 7 3 8 -4 4 -7 -4 -12 -2 -12 3 0 6 5 11 10 11 7
0 7 6 0 19 -5 11 -10 26 -9 33 0 9 2 9 6 -2 9 -23 33 -43 41 -35 4 4 1 10 -5
12 -18 6 -16 23 2 23 13 0 21 25 16 53 -2 12 17 8 22 -5 3 -7 6 2 6 20 1 25 5
32 20 32 26 0 36 17 21 35 -10 12 -10 15 2 15 7 0 14 8 14 19 0 13 -6 17 -19
13 -14 -4 -18 -12 -15 -32 3 -20 0 -26 -9 -23 -8 3 -11 14 -7 32 9 35 14 42
24 36 5 -3 11 -1 15 5 3 5 17 7 31 4 19 -5 23 -3 18 9 -3 9 -12 13 -20 10 -18
-7 -18 17 1 43 8 12 12 24 8 27 -3 4 2 10 12 14 24 9 47 32 63 63 7 14 10 17
7 7 -3 -12 -1 -17 7 -15 7 3 16 18 19 34 4 16 7 25 8 21 2 -12 81 74 81 89 0
6 8 11 18 10 9 0 16 5 14 12 -1 6 4 12 12 12 8 0 21 9 29 20 8 11 17 17 20 13
4 -3 7 -2 7 4 0 6 -9 13 -19 16 -13 3 -18 0 -15 -8 3 -6 -3 -18 -12 -26 -16
-13 -17 -12 -11 13 4 15 3 30 -3 33 -17 11 -11 25 15 35 14 5 25 12 25 15 0 4
-4 3 -10 0 -5 -3 -10 -2 -10 4 0 14 59 81 71 81 6 0 20 9 32 21 12 11 54 35
93 54 39 18 76 41 83 49 8 9 19 16 25 16 6 0 21 13 34 30 24 29 84 56 102 45
10 -6 46 10 68 32 7 7 20 13 28 13 8 0 14 4 14 9 0 11 -68 5 -84 -8 -7 -6 -26
-12 -42 -13 -16 -1 -33 -5 -39 -9 -18 -13 -90 -40 -80 -30 38 36 278 171 304
171 10 -1 7 -5 -9 -13 -14 -7 -26 -20 -28 -30 -2 -14 9 -11 62 18 36 19 77 36
90 37 14 1 23 5 20 9 -4 7 84 34 100 30 4 -1 17 1 28 5 16 5 17 8 8 14 -9 6
-2 13 25 24 42 18 57 20 35 6 -9 -6 -10 -10 -3 -10 6 0 18 6 25 13 7 6 25 12
41 11 15 -1 27 3 27 9 0 6 18 7 45 4 32 -5 45 -3 46 6 0 8 2 8 5 1 5 -13 84 4
84 18 0 4 7 8 15 8 8 0 14 5 13 12 -3 11 9 15 137 43 88 20 82 19 135 12 29
-5 38 -4 25 2 -14 6 -3 8 35 5 30 -2 82 1 115 7 166 28 593 33 805 9z m9734
-85 c71 -3 137 -10 147 -15 10 -6 38 -10 63 -10 35 0 46 -4 46 -16 0 -8 5 -12
10 -9 6 3 10 1 10 -4 0 -6 7 -11 15 -11 8 0 15 -4 15 -10 0 -5 7 -7 15 -4 8 4
15 1 15 -5 0 -6 3 -10 8 -9 4 1 18 -4 32 -12 14 -8 30 -15 35 -16 6 0 16 -2
23 -2 6 -1 11 -8 10 -14 -2 -7 3 -12 10 -10 6 1 12 -2 12 -8 0 -5 -7 -10 -16
-10 -8 0 -22 -7 -31 -15 -12 -12 -18 -13 -29 -4 -11 9 -14 8 -14 -5 0 -9 7
-16 16 -16 9 0 14 -6 11 -12 -2 -8 -17 -12 -33 -10 -22 2 -26 0 -14 -8 12 -8
10 -10 -10 -10 -14 0 -37 -7 -53 -15 -21 -11 -53 -13 -135 -9 -155 7 -205 7
-224 -1 -10 -4 -25 -5 -33 -1 -8 3 -15 1 -15 -3 0 -13 237 -24 347 -16 130 9
245 31 318 60 62 25 76 25 56 1 -7 -8 -15 -58 -18 -113 -2 -54 -5 -114 -7
-133 -1 -29 -8 -38 -38 -54 l-36 -20 -6 -105 c-38 -602 -111 -1391 -136 -1455
-6 -18 -6 -25 0 -21 12 7 12 3 4 -19 -3 -9 -9 -14 -13 -12 -3 2 -7 -8 -8 -22
0 -14 -8 -31 -15 -36 -8 -6 -13 -17 -10 -24 2 -8 -21 -1 -57 17 -69 35 -81 37
-81 15 0 -10 -6 -14 -14 -11 -8 3 -20 -1 -26 -9 -7 -8 -27 -14 -46 -14 -18 0
-35 -4 -38 -9 -3 -5 -15 -7 -26 -4 -11 3 -20 0 -20 -6 0 -14 55 -14 83 0 20
10 21 10 7 -5 -9 -9 -41 -18 -78 -22 -61 -7 -62 -7 -62 -38 1 -27 2 -29 14
-14 8 11 20 15 34 11 13 -3 22 -1 22 6 0 6 15 11 34 11 19 0 38 4 41 10 9 15
32 12 39 -5 10 -26 -11 -61 -46 -79 l-33 -17 50 7 c68 9 49 -10 -31 -30 -40
-10 -105 -16 -184 -16 l-122 0 8 98 c10 117 11 143 13 203 1 46 8 54 53 63 4
0 13 7 19 14 7 6 17 12 22 12 5 0 16 7 25 17 15 15 17 14 23 -8 6 -22 7 -21 8
8 1 36 16 50 35 34 11 -9 15 -7 19 10 3 12 10 18 16 14 13 -7 14 -3 5 19 -6
16 -46 13 -70 -5 -5 -5 -23 -5 -40 0 l-29 8 40 8 c22 4 55 12 73 18 l32 11 2
76 c0 41 0 85 -1 98 -1 17 3 22 21 21 13 0 17 -3 11 -6 -15 -6 -17 -59 -3 -68
7 -4 5 -14 -5 -28 -8 -12 -15 -32 -15 -44 0 -21 2 -22 20 -11 11 7 16 14 10
16 -16 6 -12 22 5 22 10 0 15 11 16 33 1 57 7 141 12 182 5 35 19 260 21 350
1 25 -3 29 -19 27 -11 -2 -21 -5 -22 -6 -1 -1 -4 -36 -7 -79 -5 -88 -9 -97
-39 -96 l-22 0 23 9 c18 8 22 17 22 54 0 50 -17 55 -40 10 -7 -13 -17 -24 -22
-24 -5 0 -1 11 8 25 15 23 15 25 -2 25 -25 0 -12 10 22 16 55 10 61 54 8 54
-27 0 -37 -5 -41 -20 -6 -24 -21 -26 -29 -5 -4 8 -12 15 -20 15 -8 0 -14 6
-14 14 0 7 8 13 18 13 31 -1 77 15 90 31 7 10 12 11 12 4 0 -8 17 -12 45 -12
43 0 63 15 29 22 -11 2 -16 17 -19 57 -3 56 -13 71 -52 71 -16 0 -25 -8 -29
-25 -6 -24 -24 -35 -24 -15 0 6 -8 11 -17 11 -17 1 -17 2 0 6 13 3 15 8 8 17
-15 18 0 32 41 39 28 4 40 2 46 -9 7 -13 12 -12 34 6 15 11 39 22 55 24 15 2
41 9 57 15 l28 11 -6 -97 c-19 -267 -36 -514 -40 -563 -11 -118 -15 -316 -6
-265 8 50 36 382 49 585 5 82 9 104 20 102 8 -2 21 0 30 4 9 4 21 8 26 8 6 1
11 24 12 51 1 28 5 61 9 74 5 18 4 22 -5 16 -10 -6 -11 -3 -3 11 9 17 17 89
13 122 0 7 -5 10 -11 7 -5 -3 -10 1 -10 10 0 9 5 13 11 9 7 -4 10 -1 7 7 -3 8
-1 22 4 33 6 10 11 53 13 95 2 64 1 71 -8 44 -5 -18 -14 -33 -20 -33 -5 0 -6
8 -2 18 4 9 10 36 12 60 3 23 10 45 14 48 5 3 9 16 9 30 0 19 6 26 30 31 59
11 28 19 -37 9 -51 -8 -60 -12 -35 -14 18 -2 32 -9 32 -16 0 -43 -128 -86
-256 -86 l-81 0 5 25 c2 14 9 28 14 31 5 3 5 11 -2 19 -8 10 4 11 60 7 48 -3
70 -1 70 7 0 6 -12 11 -27 11 l-28 0 3 112 c3 94 1 113 -12 120 -9 5 -14 13
-11 17 12 20 -355 31 -410 13 -29 -10 -29 -10 -5 -12 l25 -1 -23 -12 c-22 -10
-23 -15 -20 -94 2 -51 -1 -83 -7 -83 -5 0 -3 -5 5 -10 12 -8 12 -10 -5 -10
-18 -1 -18 -2 2 -10 19 -8 141 -23 333 -43 19 -2 5 -5 -31 -5 -136 -4 -425 41
-509 77 l-25 11 25 -4 c48 -9 105 -15 88 -10 -21 7 -32 71 -22 132 4 26 8 65
8 87 l1 40 -95 36 c-94 35 -187 86 -177 95 3 3 18 -1 34 -9 38 -20 190 -67
211 -66 9 0 -11 10 -45 20 -35 11 -63 23 -63 28 0 4 10 13 23 19 20 11 20 11
-8 6 -21 -4 -26 -3 -16 4 7 5 11 14 8 19 -3 5 -2 15 4 23 7 13 9 12 9 -2 0
-10 4 -18 10 -18 5 0 7 7 3 16 -10 27 40 64 86 64 24 0 46 7 57 18 10 9 31 18
48 18 51 3 117 12 123 18 3 3 33 3 67 1 33 -2 119 -7 190 -10z m-10024 -66
c-30 -4 -102 -13 -160 -19 -58 -6 -159 -20 -225 -31 -65 -11 -128 -18 -139
-15 -10 3 -62 -4 -114 -15 -52 -10 -113 -21 -134 -24 -22 -3 -43 -7 -47 -10
-4 -2 -43 -11 -87 -20 -74 -16 -217 -55 -256 -70 -10 -4 -18 -3 -18 3 0 18
216 83 400 122 263 55 536 87 745 87 84 0 86 0 35 -8z m1696 -91 l16 -33 -21
23 c-29 29 -37 28 -99 -14 -50 -33 -52 -37 -35 -49 17 -13 16 -14 -12 -15 -17
-1 -24 -4 -15 -7 10 -4 5 -10 -17 -17 -39 -13 -45 -25 -18 -40 11 -6 32 -23
46 -38 14 -16 31 -28 37 -28 6 0 15 -6 19 -14 9 -15 118 -139 146 -166 10 -10
19 -27 20 -39 1 -11 4 -21 7 -21 3 0 11 -10 19 -22 7 -13 -27 18 -75 67 -93
94 -119 118 -194 175 -25 19 -47 37 -50 40 -3 4 -35 26 -72 49 -38 24 -68 48
-68 52 0 5 15 9 33 9 54 0 105 19 191 70 98 59 120 62 142 18z m5404 -88 c30
-6 60 -12 65 -14 6 -1 28 -6 50 -10 47 -9 193 -59 237 -82 60 -31 88 -71 82
-118 -1 -15 -4 -29 -6 -31 -2 -1 -21 -15 -43 -30 -41 -29 -38 -29 30 0 l40 17
-29 -31 c-17 -17 -26 -31 -20 -31 5 0 2 -5 -6 -10 -8 -5 -10 -10 -4 -10 7 0 6
-23 -3 -72 -8 -40 -15 -82 -17 -94 -5 -30 -45 -104 -56 -104 -5 0 -12 5 -16
12 -4 6 -3 8 4 4 18 -11 26 16 8 29 -9 7 -26 40 -37 74 -25 74 -45 79 -54 14
-9 -68 -25 -114 -40 -120 -10 -3 -11 -11 -5 -28 11 -28 8 -29 -90 -45 -103
-16 -125 -14 -126 13 -8 167 -12 226 -18 235 -3 6 4 13 16 16 13 2 -46 4 -131
2 l-154 -2 -23 -28 c-16 -18 -24 -40 -24 -64 0 -20 -6 -65 -14 -100 -7 -35 -9
-65 -4 -68 5 -3 75 -9 156 -13 l147 -8 -165 -2 c-103 -2 -157 -6 -145 -11 11
-5 16 -9 10 -10 -5 0 -2 -5 8 -11 9 -5 17 -16 17 -24 0 -7 6 -16 13 -19 24
-12 -120 3 -192 20 -51 11 -69 19 -60 25 12 8 12 11 -1 19 -11 7 -11 10 -2 10
7 0 10 5 7 10 -3 6 -1 10 6 10 27 0 -3 12 -106 40 -59 17 -119 37 -134 45 -33
18 -26 18 24 0 55 -20 71 -20 55 0 -7 9 -10 18 -7 22 4 3 2 12 -4 20 -9 10 -8
13 1 13 8 0 9 4 3 13 -5 6 -7 52 -4 101 l6 88 -72 35 c-39 20 -84 47 -100 61
-28 24 -28 24 -3 18 14 -4 20 -4 14 1 -23 17 -45 73 -35 91 38 69 155 118 356
146 56 8 540 -4 595 -14z m-7071 -331 l23 -30 -26 7 c-17 4 -35 1 -50 -9 -22
-15 -25 -15 -42 4 -25 28 -66 22 -74 -11 -3 -14 -17 -30 -30 -37 -30 -15 -40
-8 -16 10 10 7 17 22 14 33 -4 21 -28 29 -65 19 -23 -5 -24 -8 -11 -23 31 -35
31 -42 0 -36 -22 5 -35 1 -51 -15 -25 -25 -31 -26 -31 -6 0 21 -35 37 -65 29
-23 -6 -25 -10 -20 -35 6 -26 4 -30 -24 -35 -17 -4 -34 -10 -36 -15 -3 -4 -18
-1 -33 8 -38 22 -78 12 -77 -20 0 -13 6 -31 14 -40 7 -10 9 -17 3 -17 -5 0
-12 6 -15 14 -5 12 -12 12 -43 1 -26 -9 -46 -10 -63 -3 -41 15 -71 2 -71 -31
0 -24 -5 -31 -30 -36 -16 -4 -32 -10 -35 -15 -3 -5 -18 -1 -34 8 -23 13 -34
14 -53 5 -20 -9 -24 -17 -20 -42 4 -26 1 -31 -17 -31 -11 0 -30 -9 -41 -20
-19 -19 -20 -19 -44 5 -30 30 -34 30 -66 5 l-25 -19 23 -23 c12 -14 22 -27 22
-30 0 -2 -19 -4 -42 -4 -39 1 -43 -1 -51 -30 -6 -21 -20 -37 -43 -47 -19 -9
-34 -22 -34 -28 0 -7 -12 0 -26 15 -32 31 -34 32 -68 5 l-27 -22 28 -29 28
-30 -40 6 c-52 9 -81 -10 -70 -45 11 -32 9 -33 -38 -37 -10 -1 -22 -14 -28
-29 -8 -21 -83 -103 -94 -103 -2 0 -5 9 -8 20 -7 28 -33 35 -62 16 -50 -33
-19 -76 43 -61 l27 6 -30 -24 -29 -24 -32 20 c-22 15 -30 26 -26 41 7 28 162
184 162 163 0 -21 38 -23 64 -4 20 14 18 54 -2 50 -7 -2 -12 2 -12 8 0 7 10 9
24 7 29 -6 91 39 68 49 -9 3 2 12 26 23 22 10 45 27 51 38 14 27 81 67 104 64
23 -4 77 17 77 29 0 5 -4 9 -10 9 -5 0 -10 5 -10 10 0 6 7 10 15 10 23 0 65
22 65 35 0 13 83 57 102 54 25 -4 69 13 65 26 -6 15 77 57 97 49 24 -9 90 16
77 29 -14 14 47 37 112 41 45 3 92 25 56 27 -20 1 29 20 74 29 46 9 39 -1 -11
-16 l-37 -10 30 -16 c42 -22 78 -8 69 27 -5 20 -2 25 12 25 9 0 25 7 35 16 19
17 113 36 203 40 35 1 62 8 67 15 6 11 15 10 44 -4 21 -10 46 -15 56 -12 32
11 21 24 -23 28 -43 3 -42 4 7 5 44 1 53 -3 74 -29z m7369 -341 c-2 -29 -7
-56 -13 -60 -7 -5 -7 -8 0 -8 12 0 -10 -542 -27 -645 -11 -72 -28 -109 -28
-63 0 19 -8 30 -32 42 l-33 16 33 0 c23 0 32 4 29 13 -2 6 1 19 8 27 8 9 15
63 19 146 3 72 9 144 12 161 4 19 1 33 -5 38 -8 4 -9 11 -3 18 16 20 20 136 5
141 -7 3 -13 11 -12 18 0 10 2 10 6 0 2 -6 9 -10 14 -6 13 7 11 84 -1 84 -7 0
-7 6 -1 18 5 10 11 40 12 65 2 26 7 47 11 47 5 0 7 -24 6 -52z m548 -55 c-3
-32 -12 -62 -20 -68 -8 -6 -13 -33 -14 -70 0 -33 2 -54 4 -47 7 15 34 16 34 1
0 -5 5 -7 10 -4 6 4 10 -10 10 -35 0 -23 -3 -39 -7 -37 -5 3 -9 -11 -11 -30
-1 -19 -7 -44 -13 -55 -8 -14 -8 -23 0 -31 8 -8 11 -8 11 1 0 7 4 12 10 12 5
0 7 -21 5 -47 -9 -101 -18 -240 -19 -295 -1 -53 -2 -57 -22 -52 -12 3 -25 1
-28 -5 -4 -6 -1 -11 6 -11 22 0 41 -39 27 -56 -6 -8 -17 -14 -25 -14 -7 0 -16
-5 -20 -12 -5 -8 -2 -9 9 -5 14 5 16 2 11 -21 -9 -38 -13 -42 -33 -42 -14 0
-17 6 -13 25 3 18 0 25 -12 25 -9 0 -21 12 -26 26 -6 14 -15 22 -21 18 -8 -4
-9 0 -4 15 4 12 2 21 -4 21 -6 0 -11 -7 -11 -15 0 -8 -4 -15 -10 -15 -5 0 -10
7 -10 16 0 8 -4 13 -9 10 -5 -3 -11 10 -13 29 -3 26 -1 34 9 31 16 -6 17 16 2
31 -6 6 -8 17 -4 23 6 9 10 9 16 -1 8 -12 10 -12 18 0 5 7 13 11 19 7 6 -4 8
2 5 14 -4 14 1 21 22 26 20 5 23 9 13 15 -8 6 1 6 21 2 29 -5 33 -4 28 10 -3
9 0 18 9 21 18 7 18 52 -1 60 -11 4 -14 21 -10 83 2 43 7 146 10 228 4 83 11
158 16 167 6 10 5 19 -1 23 -5 3 -10 23 -10 43 0 28 3 33 10 22 8 -13 10 -12
10 3 0 9 7 17 16 17 14 0 16 -8 10 -57z m-485 -69 c6 -7 7 -25 5 -40 -3 -16
-6 -85 -6 -154 -1 -117 -25 -467 -50 -730 -7 -63 -25 -182 -41 -265 -17 -82
-31 -170 -33 -194 -1 -25 -8 -47 -14 -49 -7 -2 -12 -9 -12 -16 0 -7 -9 -21
-21 -32 l-21 -19 34 -28 c32 -27 30 -27 -40 8 -59 29 -76 34 -88 24 -11 -9
-17 -9 -29 1 -23 19 -47 -5 -38 -38 4 -18 3 -23 -6 -18 -7 4 -10 2 -9 -5 5
-19 -18 -21 -36 -3 -17 16 -31 12 -31 -9 0 -7 -8 -11 -18 -9 -10 2 -17 -4 -17
-14 0 -16 18 -16 62 1 11 5 14 -1 10 -25 -3 -21 -10 -30 -23 -30 -10 0 -20 -4
-23 -8 -2 -4 -18 -9 -35 -10 -25 -2 -31 2 -31 17 0 10 -7 21 -15 25 -8 3 -14
2 -14 -2 7 -42 -3 -80 -23 -90 -20 -9 -20 -11 -4 -11 10 -1 27 11 38 25 12 14
27 23 35 20 16 -7 103 12 118 25 15 15 25 10 25 -11 0 -33 -65 -67 -154 -79
-44 -6 -82 -14 -85 -18 -8 -8 142 6 198 18 24 5 46 8 48 5 3 -2 -31 -12 -74
-22 -56 -13 -124 -18 -239 -18 -130 -1 -154 -3 -121 -11 45 -11 62 -34 25 -36
-18 -1 -16 -3 12 -12 19 -6 94 -10 165 -10 132 2 144 -13 15 -17 -83 -3 -187
-16 -145 -19 17 -2 39 -4 50 -7 33 -6 286 16 307 27 13 7 24 7 30 1 6 -6 -15
-14 -61 -23 -39 -7 -69 -14 -67 -16 2 -2 43 1 92 7 239 30 408 106 430 196 10
41 -6 77 -54 123 -39 36 -43 42 -22 37 23 -6 23 -6 8 7 -31 25 -27 429 5 449
6 4 14 3 17 -1 3 -4 19 -12 35 -16 37 -10 263 -11 325 -2 32 4 39 3 25 -4 -14
-6 -3 -8 40 -4 57 5 59 4 30 -9 -16 -8 -41 -19 -55 -24 -21 -9 -19 -10 14 -5
28 5 37 3 32 -5 -4 -7 -1 -12 7 -12 8 0 17 -6 20 -14 7 -17 32 -15 49 2 9 9 9
12 0 12 -6 0 -9 7 -6 15 7 16 34 21 34 6 0 -6 12 -6 32 0 47 13 67 11 38 -4
-21 -11 -25 -19 -22 -52 2 -28 -3 -47 -19 -69 l-23 -31 27 18 c40 26 44 21 11
-14 -18 -19 -22 -28 -11 -24 9 4 17 10 17 14 0 4 15 15 33 25 31 17 31 17 -8
-21 -51 -48 -419 -390 -494 -459 -124 -113 -339 -179 -621 -191 -409 -16 -849
66 -990 186 -22 18 -19 18 26 -4 30 -16 57 -23 68 -19 16 6 16 8 -3 28 -18 19
-11 18 45 -10 72 -35 224 -88 231 -81 2 3 -18 12 -45 21 -56 19 -142 71 -142
86 0 5 20 -4 44 -21 43 -31 73 -32 61 -2 -5 14 -3 14 12 2 17 -13 17 -13 0 13
-9 15 -17 38 -17 50 0 20 3 18 17 -11 16 -31 17 -32 25 -12 8 24 12 25 39 11
13 -7 19 -7 19 0 0 5 -4 10 -9 10 -5 0 -23 14 -40 31 -39 39 -41 80 -6 107 33
26 32 35 -2 29 l-28 -6 27 11 c49 21 41 83 -10 72 l-27 -5 25 15 c14 8 37 15
53 16 15 0 27 4 27 10 0 18 44 50 69 50 l25 0 -32 -33 c-18 -18 -32 -41 -32
-50 0 -26 14 -20 27 11 7 15 33 41 58 56 25 16 45 32 45 36 0 4 3 21 6 38 6
27 3 31 -26 37 -17 4 -34 13 -37 21 -3 8 -12 14 -20 14 -17 0 -52 39 -53 57 0
7 -12 19 -27 27 -25 13 -26 15 -10 21 10 4 21 5 24 2 3 -4 13 -2 22 2 13 7 16
4 18 -17 0 -15 -4 -31 -10 -35 -7 -5 -2 -6 10 -2 18 5 22 3 17 -9 -4 -10 -1
-16 7 -16 8 0 25 -9 39 -20 14 -11 39 -20 56 -20 19 0 39 -9 54 -25 12 -13 25
-24 29 -23 28 3 50 -4 45 -14 -2 -8 -25 -14 -52 -15 -41 -2 -45 0 -29 11 16
13 16 14 0 27 -9 8 -14 9 -10 2 4 -7 -2 -18 -15 -27 -12 -8 -22 -26 -22 -39
-1 -20 3 -24 24 -23 25 1 25 0 22 -71 -3 -47 0 -73 7 -73 6 0 8 6 5 14 -3 8 7
26 23 41 15 15 23 25 17 21 -18 -9 -25 21 -8 35 19 16 37 0 37 -35 0 -28 7
-32 25 -14 14 14 23 7 25 -21 1 -11 7 -21 13 -21 13 0 28 65 19 80 -5 9 3 13
25 12 3 0 20 -3 38 -7 25 -5 32 -3 32 9 0 9 -4 16 -10 16 -5 0 -10 4 -10 9 0
5 9 7 19 4 13 -3 21 1 24 14 4 15 5 14 6 -4 0 -13 -3 -23 -9 -23 -5 0 -10 -9
-10 -21 0 -11 -5 -29 -10 -40 -8 -13 -7 -19 0 -19 6 0 3 -11 -6 -25 -15 -23
-15 -25 0 -19 9 3 16 11 16 17 0 6 3 7 6 4 4 -4 -1 -17 -9 -31 -16 -23 -15
-25 3 -31 11 -4 17 -12 13 -21 -3 -8 1 -14 11 -14 19 0 21 11 4 28 -8 8 -8 15
3 28 8 9 13 26 11 36 -2 11 2 26 10 35 10 13 10 17 1 20 -15 5 -17 39 -3 48
10 6 14 -7 10 -34 -1 -9 4 -12 16 -7 15 6 15 5 0 -18 -20 -32 -21 -50 0 -42
12 4 14 1 9 -13 -6 -21 10 -38 20 -21 4 6 15 8 26 5 23 -8 26 13 3 22 -8 3
-13 12 -10 20 3 8 1 23 -4 34 -15 27 5 25 24 -3 9 -12 19 -19 22 -15 4 4 -9
22 -29 41 -44 41 -37 55 9 20 22 -18 36 -38 40 -61 6 -29 8 -33 16 -19 11 20
-10 58 -47 82 -14 9 -22 20 -19 25 3 5 -4 9 -15 9 -22 0 -40 20 -19 21 10 0
10 2 1 6 -22 8 -15 35 7 28 11 -4 20 -2 20 4 0 6 -4 11 -10 11 -24 0 -7 16 35
33 25 11 43 23 40 27 -3 4 2 10 10 14 25 9 18 28 -7 20 -23 -7 -23 -7 1 13 20
16 22 23 12 41 -8 14 -10 70 -6 174 5 172 16 300 22 280 3 -7 16 -25 29 -39
32 -35 29 -83 -6 -101 -14 -7 -17 -10 -7 -7 12 3 17 -1 17 -14 0 -40 -13 -81
-26 -81 -8 0 -14 -4 -14 -10 0 -15 27 -12 44 6 15 14 16 11 16 -30 0 -30 -4
-46 -12 -46 -8 0 -9 -3 -3 -8 13 -9 16 -42 4 -42 -5 0 -9 8 -9 17 0 14 -2 15
-12 4 -11 -10 -8 -16 11 -30 13 -10 21 -22 18 -27 -3 -6 -7 -41 -8 -79 -1 -39
-7 -76 -12 -82 -6 -9 -5 -18 3 -28 10 -12 9 -15 -6 -15 -12 0 -15 -3 -8 -8 7
-4 10 -22 8 -39 -4 -38 0 -40 25 -15 16 14 19 41 25 172 4 86 9 173 12 195 3
22 5 62 4 89 -1 31 4 52 12 57 10 7 10 11 0 21 -14 14 -16 58 -3 58 5 0 12 15
16 33 4 17 9 26 12 20 8 -22 36 -15 30 7 -3 11 -2 22 3 25 8 5 19 -37 23 -83
1 -13 7 -20 15 -17 6 2 12 0 12 -4 0 -5 -4 -11 -10 -13 -5 -1 -12 -22 -15 -46
-4 -36 -33 -82 -50 -82 -3 0 -9 0 -15 0 -5 0 -10 -7 -10 -15 0 -11 9 -14 35
-10 43 5 55 12 55 31 0 8 5 14 10 14 11 0 13 -62 4 -97 -4 -13 -11 -20 -20
-16 -8 3 -14 1 -14 -5 0 -5 -17 -14 -37 -20 l-38 -10 33 -1 c17 -1 32 -6 32
-11 0 -6 10 -1 23 10 22 21 22 21 25 1 2 -11 9 -25 17 -31 11 -9 15 -5 21 24
3 20 4 48 1 62 -2 13 2 41 9 62 19 54 18 112 -3 128 -17 12 -16 13 4 14 22 0
22 2 21 163 0 192 11 369 23 361 5 -3 9 1 9 10 0 8 -3 16 -7 18 -5 2 -7 45 -5
96 2 53 7 90 13 87 5 -4 9 -2 9 4 0 5 -4 12 -9 15 -4 3 -7 16 -6 28 1 13 4 37
5 53 2 22 4 25 7 10 3 -11 9 -25 14 -31z m939 -131 c5 -7 16 -10 23 -7 16 6
43 -23 33 -33 -4 -4 -11 -1 -16 7 -6 8 -10 10 -10 4 0 -6 7 -17 15 -24 9 -7
14 -18 12 -24 -18 -49 -19 -59 -3 -53 9 4 16 2 16 -2 0 -13 -26 -21 -92 -28
-32 -3 -58 -10 -58 -14 0 -5 -11 -8 -25 -7 -24 2 -25 4 -25 83 0 44 5 87 10
95 9 13 10 13 10 0 0 -13 1 -13 10 0 8 13 11 13 19 1 7 -11 12 -10 28 6 11 11
18 26 15 34 -2 8 4 5 12 -6 8 -11 20 -25 26 -32z m-364 12 c-3 -9 0 -15 9 -15
8 0 15 5 15 10 0 6 5 10 10 10 6 0 9 -3 8 -7 -1 -5 2 -17 8 -28 6 -11 10 -40
10 -65 -1 -35 -7 -51 -28 -71 -19 -19 -30 -23 -37 -16 -8 8 -11 6 -11 -6 0
-24 55 -22 79 2 19 19 19 19 24 -7 3 -17 -2 -32 -17 -47 -20 -20 -21 -24 -7
-33 13 -10 13 -11 1 -7 -8 2 -31 0 -50 -4 -19 -5 -27 -9 -17 -10 10 -1 15 -6
12 -11 -3 -6 2 -13 11 -17 16 -6 16 -7 -2 -15 -11 -4 2 -5 30 -1 35 4 47 2 42
-6 -5 -7 -1 -9 10 -4 15 6 17 0 12 -58 -4 -42 -3 -57 3 -44 8 17 9 17 5 -5
-22 -111 -40 -180 -47 -180 -5 0 -9 -5 -9 -11 0 -5 6 -7 13 -4 6 4 4 0 -5 -8
-10 -8 -18 -19 -18 -26 0 -7 -10 -9 -27 -6 -16 3 -21 2 -13 -1 16 -8 56 -44
48 -44 -3 0 -31 11 -62 25 l-57 25 -21 -22 -20 -23 20 35 c13 23 17 42 12 55
-4 11 -4 25 0 30 4 6 10 57 14 115 31 484 34 510 53 510 3 0 3 -7 -1 -15z
m-940 -36 c3 -6 8 -30 9 -52 2 -23 5 -51 7 -62 5 -33 -26 -29 -39 6 -8 21 -17
30 -30 27 -10 -2 -18 -11 -18 -20 0 -9 -4 -20 -9 -25 -5 -5 -6 -2 -1 5 5 10 2
13 -11 10 -10 -2 -21 -14 -24 -28 -4 -17 -8 -21 -14 -12 -4 7 -12 10 -17 7 -5
-4 -9 3 -9 15 0 12 -3 19 -7 17 -5 -3 -9 5 -9 18 -1 18 6 25 37 35 21 7 53 26
71 41 36 30 53 35 64 18z m1565 -40 c2 -61 -31 -624 -37 -639 -5 -12 -8 -11
-14 5 -8 19 -9 19 -9 -2 -1 -13 -6 -23 -12 -23 -5 0 -7 6 -4 13 4 6 -1 3 -10
-8 -19 -24 -35 -7 -27 31 5 28 22 33 23 7 0 -11 3 -13 6 -5 2 6 10 12 18 12 8
0 13 17 14 50 1 53 -15 69 -22 23 -2 -16 -5 -5 -6 24 0 28 4 55 9 58 6 3 10
23 10 43 0 20 4 52 10 71 8 30 26 198 39 365 2 31 11 12 12 -25z m107 -43 c17
-9 32 -23 32 -31 0 -19 24 -19 40 0 14 17 60 21 60 5 0 -5 -9 -10 -20 -10 -27
0 -71 -21 -95 -46 -11 -11 -28 -18 -37 -16 -11 2 -18 -3 -18 -12 0 -11 8 -15
25 -14 14 1 25 6 25 11 0 4 4 6 10 2 5 -3 28 6 51 20 56 36 60 25 6 -16 -25
-19 -54 -49 -66 -67 -17 -26 -27 -32 -44 -27 -19 5 -20 4 -6 -6 15 -11 14 -17
-2 -70 -13 -43 -19 -97 -21 -199 -1 -77 -4 -140 -6 -140 -3 0 -11 8 -18 18
-12 15 -15 15 -24 2 -12 -16 -8 116 12 400 5 85 10 169 10 185 -1 17 1 38 4
48 6 18 7 18 27 -1 12 -11 37 -27 55 -36z m-1620 -88 c19 -19 15 -95 -5 -108
-17 -9 -16 -11 5 -29 26 -23 27 -30 6 -45 -12 -9 -14 -21 -9 -49 7 -34 9 -36
21 -20 12 17 13 16 14 -8 0 -58 -13 -149 -23 -149 -6 0 -8 24 -4 65 5 53 4 65
-8 65 -9 0 -15 -9 -15 -22 0 -13 -5 -30 -10 -38 -7 -11 -10 -7 -11 20 -2 49
-3 52 -17 77 -10 19 -9 24 5 32 17 10 17 12 0 25 -15 11 -15 15 -3 25 8 7 15
20 15 29 0 9 3 29 7 45 4 16 2 27 -4 27 -6 0 -13 -10 -15 -22 -3 -17 -5 -14
-6 9 -1 37 17 83 34 83 6 0 16 -5 23 -12z m-578 -67 c0 -12 2 -13 9 -3 6 11
19 10 67 -7 56 -19 57 -20 24 -21 -29 -1 -32 -3 -15 -10 18 -8 18 -9 -5 -9
-21 -1 -22 -3 -10 -12 12 -9 12 -10 -4 -5 -11 4 -23 1 -28 -6 -6 -10 -8 -8 -8
5 0 9 6 17 13 17 9 0 8 3 -2 9 -7 5 -10 14 -6 21 6 9 3 9 -14 0 -12 -6 -29 -9
-39 -6 -17 6 -44 -6 -43 -18 4 -31 -1 -45 -14 -40 -9 4 -15 1 -15 -7 0 -17 63
-47 104 -51 16 -2 32 -9 34 -17 4 -11 -1 -12 -19 -6 -13 4 -54 10 -91 12 -38
3 -68 7 -68 10 0 3 8 11 17 18 16 12 16 14 -2 31 -10 10 -24 19 -32 19 -7 0
-14 5 -15 10 -4 14 40 19 55 7 8 -7 17 -5 27 6 13 14 12 15 -3 9 -21 -8 -22 6
-2 23 8 6 14 15 13 18 -2 18 5 21 37 20 25 -1 35 -6 35 -17z m1714 -43 c-4 -7
-2 -8 4 -4 7 4 20 2 29 -3 14 -8 15 -11 3 -11 -10 -1 -9 -4 5 -10 32 -14 122
-12 129 3 3 6 3 -70 0 -171 -4 -125 -2 -188 5 -196 8 -10 7 -17 -3 -25 -13
-11 -17 -7 -25 21 -5 18 -10 25 -10 16 -1 -15 -8 -17 -48 -12 -27 3 -63 9 -80
14 -28 7 -33 6 -34 -8 0 -11 -4 -8 -11 8 -6 16 -8 76 -4 165 9 199 16 243 37
229 5 -3 6 -10 3 -16z m578 -205 c2 -41 0 -77 -5 -80 -4 -2 -5 -9 -1 -14 3 -5
0 -16 -6 -24 -10 -12 -8 -17 11 -24 18 -7 19 -10 7 -10 -11 -1 -18 -9 -18 -22
0 -19 1 -19 16 -5 12 12 20 13 35 6 10 -6 25 -10 32 -9 17 3 66 -11 102 -29
40 -19 38 -17 25 -43 l-13 -23 -13 27 c-12 21 -26 28 -86 41 -93 19 -106 18
-125 -11 l-16 -24 -14 38 c-7 21 -11 48 -8 61 5 18 1 22 -20 22 -26 0 -29 7
-19 34 3 9 11 13 16 10 6 -4 8 2 3 15 -9 29 4 121 17 121 7 0 8 -15 4 -38 -6
-39 14 -85 30 -69 4 4 2 7 -4 7 -13 0 -16 78 -6 117 5 19 9 20 29 11 21 -9 24
-18 27 -85z m-1179 -80 c-3 -7 -15 -13 -27 -14 -17 0 -14 -4 12 -15 30 -13 32
-17 20 -31 -11 -15 -11 -16 5 -10 14 5 16 2 11 -17 -3 -13 -1 -27 5 -30 6 -4
11 -16 11 -27 0 -18 1 -19 24 -4 14 9 37 15 53 13 25 -3 23 -5 -19 -18 -26 -7
-46 -18 -45 -24 3 -14 -58 -25 -152 -27 -53 0 -79 -4 -70 -10 11 -7 9 -9 -8
-9 -27 0 -33 22 -29 100 4 79 5 80 21 80 8 0 15 4 15 9 0 5 10 11 21 14 24 6
44 -9 52 -39 4 -17 5 -17 6 2 1 13 9 24 21 27 21 5 28 27 9 27 -5 0 -7 4 -4
10 9 15 74 9 68 -7z m237 -212 c0 -35 -15 -70 -34 -79 -13 -6 -67 -16 -120
-22 -62 -8 -93 -16 -84 -21 7 -5 -34 -9 -99 -9 -64 0 -114 4 -118 10 -3 6 2
11 12 11 17 1 17 2 1 6 -10 3 -18 14 -18 26 0 41 12 47 71 38 32 -6 85 -6 125
-1 38 5 71 7 73 4 3 -2 -4 -11 -15 -19 -15 -11 -16 -14 -4 -15 9 0 23 9 33 20
11 13 29 20 54 20 21 0 51 9 68 20 32 21 55 26 55 11z m828 -159 c3 -147 -19
-272 -44 -251 -12 9 -14 4 -14 -31 0 -24 -3 -41 -6 -38 -9 9 8 408 18 408 4 0
9 -12 9 -27 1 -21 3 -23 6 -8 4 19 24 75 27 75 0 0 2 -57 4 -128z m-274 54 c4
-59 16 -90 16 -43 0 15 5 27 11 27 8 0 10 -18 6 -57 -3 -33 -2 -51 2 -43 5 8
12 51 16 94 5 52 10 74 16 65 5 -8 9 -9 9 -3 0 7 7 15 16 18 15 6 16 0 10 -46
-7 -49 -25 -99 -26 -70 0 6 -4 12 -8 12 -5 0 -6 -15 -4 -32 3 -18 7 -27 9 -20
3 6 9 12 15 12 7 0 8 -25 4 -72 -4 -40 -9 -93 -10 -118 -2 -25 -10 -65 -19
-90 -8 -25 -18 -57 -21 -72 -4 -16 -11 -28 -17 -28 -7 0 -9 10 -4 28 16 63 16
109 0 122 -8 7 -15 19 -15 26 0 8 -6 11 -15 8 -10 -4 -13 -13 -10 -24 3 -10 0
-22 -7 -26 -7 -4 -10 -3 -5 1 4 5 1 18 -6 29 -11 16 -12 53 -7 161 3 77 5 142
3 144 -2 3 -17 -9 -35 -25 -17 -16 -27 -22 -23 -14 5 8 19 23 32 33 13 10 23
27 23 37 0 15 26 32 38 25 1 -1 4 -28 6 -59z m-2189 -866 c199 -41 370 -61
580 -68 126 -4 192 -9 165 -13 -35 -5 -25 -7 50 -9 168 -5 29 -18 -195 -19
-272 -1 -465 21 -652 73 -95 27 -204 70 -148 60 29 -6 29 -6 10 9 -18 15 -15
15 35 2 30 -8 100 -24 155 -35z m-700 -110 c451 -72 504 -80 1040 -169 231
-38 551 -91 710 -116 709 -114 2611 -426 2712 -446 29 -6 55 -15 58 -20 4 -5
2 -9 -3 -9 -5 0 -510 83 -1123 185 -613 101 -1350 222 -1639 269 -766 125
-2125 353 -2145 361 -28 10 45 0 390 -55z m2833 -234 c22 -8 42 -11 44 -6 2 5
37 1 78 -10 179 -46 414 -80 675 -99 106 -8 107 -8 40 -11 l-70 -4 85 -7 c49
-4 -16 -5 -155 -3 -132 1 -274 8 -315 14 -98 15 -342 77 -349 88 -3 5 -24 19
-46 30 -47 25 -43 27 13 8z"/>
<path d="M5331 4599 l-25 -20 44 -107 c24 -59 49 -114 57 -123 12 -14 43 -18
161 -24 163 -8 181 -15 202 -81 13 -39 17 -40 46 -16 l22 17 -51 118 c-38 92
-55 121 -74 128 -13 5 -82 9 -153 9 l-128 0 -26 31 c-14 17 -26 36 -26 43 0 7
-6 20 -12 29 -12 15 -15 14 -37 -4z"/>
<path d="M11570 5357 c0 -5 -10 -8 -22 -7 -44 4 -57 0 -63 -20 -3 -11 -13 -20
-20 -20 -9 0 -14 -10 -14 -27 1 -16 -2 -41 -5 -58 -4 -16 -7 -37 -8 -45 0 -8
-5 -20 -9 -26 -13 -16 152 -34 305 -34 l125 0 -5 83 c-3 45 -6 102 -7 125 l-2
44 -137 -4 c-76 -1 -138 -7 -138 -11z"/>
<path d="M10743 4752 c-21 -16 -26 -42 -35 -192 -1 -8 -5 -18 -11 -21 -22 -15
272 -38 391 -31 46 3 53 6 47 20 -3 9 -9 60 -11 112 -3 52 -7 100 -9 107 -2 6
1 14 8 17 7 2 -71 5 -173 5 -161 0 -188 -2 -207 -17z"/>
<path d="M13714 4232 c-10 -6 -21 -152 -54 -757 -5 -93 -12 -210 -15 -260 -3
-53 -1 -84 4 -75 4 8 11 62 15 120 6 110 29 484 46 755 6 88 13 175 15 193 5
35 5 35 -11 24z"/>
<path d="M13655 5082 c-11 -2 -30 -15 -42 -29 -17 -19 -20 -30 -13 -49 5 -13
7 -31 3 -39 -3 -9 2 -22 12 -29 10 -7 15 -18 11 -24 -3 -6 2 -13 11 -15 15 -4
15 -5 -2 -6 -11 -1 -28 -8 -37 -15 -16 -12 -9 -15 55 -25 83 -13 263 -31 313
-31 l34 0 0 131 0 131 -153 -3 c-83 -2 -157 -1 -162 2 -6 3 -19 4 -30 1z"/>
<path d="M11578 1860 c-52 -40 -59 -103 -18 -151 l21 -24 -6 23 c-8 28 11 78
32 86 12 5 14 2 8 -16 -17 -50 -10 -97 20 -128 39 -40 304 -144 323 -126 3 3
0 6 -7 6 -54 0 -272 124 -303 173 -14 21 -33 66 -25 57 3 -3 23 -27 46 -53 22
-27 41 -47 42 -45 0 2 2 14 5 28 7 42 37 73 113 119 40 24 70 45 67 48 -3 3
-29 -3 -57 -13 -53 -19 -100 -57 -131 -104 -16 -25 -16 -25 -35 -6 -16 18 -16
18 0 7 9 -8 20 -11 24 -7 9 9 -38 56 -50 49 -6 -3 -7 -1 -3 5 4 7 2 20 -4 29
-11 17 -11 17 -6 0 3 -11 2 -15 -4 -12 -6 3 -10 22 -10 41 0 39 -7 42 -42 14z"/>
<path d="M12620 1830 c-14 -4 -42 -8 -62 -9 -21 -1 -38 -5 -38 -10 0 -17 -62
-31 -134 -31 -39 0 -85 -4 -103 -9 -24 -7 -35 -6 -44 5 -16 19 -31 18 -27 -3
2 -9 12 -18 23 -21 32 -8 245 -3 262 6 39 22 82 -15 52 -45 -7 -7 -3 -12 15
-15 22 -5 24 -2 20 22 -11 52 50 81 80 38 42 -59 -2 -104 -117 -120 -79 -11
-102 -16 -95 -23 5 -6 180 21 229 35 20 6 49 20 63 31 23 18 25 23 14 38 -11
14 -11 14 4 3 9 -7 19 -9 22 -4 3 5 -8 19 -24 31 -17 12 -30 17 -30 10 0 -6
-9 0 -21 15 -11 14 -30 26 -42 26 -17 0 -19 3 -8 9 7 5 10 14 7 20 -8 12 -11
12 -46 1z"/>
<path d="M12764 1685 c-10 -24 -104 -62 -187 -75 -52 -9 -133 -11 -240 -7
l-162 5 64 -21 c68 -23 87 -43 49 -50 -13 -2 9 -5 48 -6 48 -1 76 4 90 14 10
8 27 15 37 15 9 0 17 4 17 9 0 9 68 20 164 27 27 2 59 10 71 18 19 13 22 12
22 -2 0 -10 -7 -23 -16 -30 -13 -11 -12 -11 9 -1 14 6 34 19 44 28 18 15 19
15 13 -2 -4 -11 -3 -16 3 -12 18 11 8 105 -11 105 -6 0 -12 -7 -15 -15z"/>
</g>
</svg>
